<?xml version="1.0" encoding="UTF-8" standalone="no"?>
<!DOCTYPE svg PUBLIC "-//W3C//DTD SVG 1.1//EN" "http://www.w3.org/Graphics/SVG/1.1/DTD/svg11.dtd">
<svg width="100%" height="100%" viewBox="0 0 1668 833" version="1.1" xmlns="http://www.w3.org/2000/svg" xmlns:xlink="http://www.w3.org/1999/xlink" xml:space="preserve" xmlns:serif="http://www.serif.com/" style="fill-rule:evenodd;clip-rule:evenodd;stroke-linejoin:round;stroke-miterlimit:2;">
    <g transform="matrix(1,0,0,1,-532.28,-551.717)">
        <g id="Logo" transform="matrix(1,0,0,1,388.28,0)">
            <g id="Rounded-GG" serif:id="Rounded GG">
                <g transform="matrix(1.19613,0,0,1.44745,-1615.51,11.8191)">
                    <path d="M1472.81,428.111C1472.91,397.648 1502.83,373 1539.69,373L2024.02,373C2041.78,373 2058.8,378.834 2071.35,389.216C2083.89,399.598 2090.93,413.677 2090.9,428.349C2090.71,538.285 2090.29,783.004 2090.1,892.81C2090.04,923.303 2060.11,948 2023.21,948C1904.3,948 1657.2,948 1538.08,948C1520.3,948 1503.26,942.155 1490.71,931.756C1478.17,921.356 1471.14,907.257 1471.19,892.571C1471.58,782.57 1472.43,537.852 1472.81,428.111Z"/>
                    <path d="M1472.81,428.111C1472.91,397.648 1502.83,373 1539.69,373L2024.02,373C2041.78,373 2058.8,378.834 2071.35,389.216C2083.89,399.598 2090.93,413.677 2090.9,428.349C2090.71,538.285 2090.29,783.004 2090.1,892.81C2090.04,923.303 2060.11,948 2023.21,948C1904.3,948 1657.2,948 1538.08,948C1520.3,948 1503.26,942.155 1490.71,931.756C1478.17,921.356 1471.14,907.257 1471.19,892.571C1471.58,782.57 1472.43,537.852 1472.81,428.111ZM1473.92,428.113C1474.02,398.157 1503.44,373.917 1539.69,373.917L2024.02,373.917C2041.48,373.917 2058.22,379.654 2070.56,389.864C2082.9,400.074 2089.82,413.919 2089.79,428.348C2089.6,538.284 2089.18,783.002 2088.99,892.808C2088.93,922.796 2059.5,947.083 2023.21,947.083C1904.3,947.083 1657.2,947.083 1538.08,947.083C1520.6,947.083 1503.84,941.335 1491.5,931.108C1479.16,920.881 1472.25,907.016 1472.3,892.574C1472.68,782.573 1473.54,537.855 1473.92,428.113Z"/>
                </g>
                <g transform="matrix(0.902742,0,0,0.902742,214.38,81.3632)">
                    <text x="30px" y="1090px" style="font-family:'DINAlternate-Bold', 'DIN Alternate', sans-serif;font-weight:700;font-size:600px;fill:white;">G</text>
                </g>
                <g transform="matrix(-0.902742,-1.10554e-16,1.10554e-16,-0.902742,815.193,1854.9)">
                    <text x="30px" y="1090px" style="font-family:'DINAlternate-Bold', 'DIN Alternate', sans-serif;font-weight:700;font-size:600px;fill:white;">G</text>
                </g>
            </g>
            <g id="Name-Group" serif:id="Name Group">
                <g transform="matrix(1,0,0,1,-27.6559,221.632)">
                    <text x="957.456px" y="838.477px" style="font-family:'Avenir-Medium', 'Avenir';font-weight:500;font-size:300px;">iannis</text>
                </g>
                <g transform="matrix(1,0,0,1,-20.0959,376.088)">
                    <text x="957.456px" y="838.477px" style="font-family:'Avenir-Medium', 'Avenir';font-weight:500;font-size:160px;">iannopoulos</text>
                </g>
            </g>
        </g>
    </g>
</svg>
